<svg width="179" height="50" viewBox="0 0 179 50" fill="none" xmlns="http://www.w3.org/2000/svg">
<path d="M11.2842 37.743C7.8459 34.3046 7.84591 28.73 11.2842 25.2917L28.0157 8.56027L40.2724 20.817C43.7107 24.2553 43.7107 29.83 40.2724 33.2683L23.541 49.9997L11.2842 37.743Z" fill="#2D8AD8"/>
<path d="M8.72125 35.1804C5.28292 31.7421 5.28292 26.1675 8.72125 22.7291L30.7343 0.716067L42.8768 12.8585C46.1002 16.082 46.1002 21.3082 42.8768 24.5316L20.4746 46.9338L8.72125 35.1804Z" fill="#5CBA4B"/>
<path d="M6.22564 32.6847C2.78731 29.2463 2.78732 23.6717 6.22564 20.2334L26.459 2.49776e-05L40.2721 13.8132C42.8509 16.3919 42.8509 20.5729 40.2721 23.1516L18.4824 44.9414L6.22564 32.6847Z" fill="#099FE4"/>
<path d="M71.5562 12.1093H82.2915V22.8446C82.2915 28.7738 77.4853 33.58 71.5562 33.58C65.627 33.5799 60.8208 28.7738 60.8208 22.8446C60.8208 16.9155 65.627 12.1093 71.5562 12.1093Z" stroke="#393D4E" stroke-width="5.50517"/>
<path d="M84.9946 36.8234C84.8133 43.9789 78.9555 49.7238 71.7563 49.7238L71.4146 49.7199C64.2591 49.5386 58.5142 43.6808 58.5142 36.4816L64.019 36.4816C64.0191 40.7546 67.4833 44.2189 71.7563 44.2189C76.0294 44.2189 79.4936 40.7546 79.4937 36.4816L84.9985 36.4816L84.9946 36.8234Z" fill="#393D4E"/>
<path d="M83.1504 29.7302C84.3245 31.7072 84.999 34.0159 84.999 36.4821L84.9951 36.8239C84.8174 43.8309 79.1966 49.4831 72.2031 49.7145V44.2048C76.2685 43.9737 79.4939 40.6053 79.4941 36.4821C79.4941 35.5977 79.3436 34.7483 79.0703 33.9567L83.1504 29.7302Z" fill="#393D4E"/>
<path d="M71.5571 22.6502H71.7515V22.8446C71.7515 22.9517 71.6643 23.0389 71.5571 23.0389C71.45 23.0388 71.3628 22.9517 71.3628 22.8446C71.3629 22.7375 71.4501 22.6503 71.5571 22.6502Z" stroke="#393D4E" stroke-width="3.50697"/>
<path d="M71.5562 12.1093H82.2915V22.8446C82.2915 28.7738 77.4853 33.58 71.5562 33.58C65.627 33.5799 60.8208 28.7738 60.8208 22.8446C60.8208 16.9155 65.627 12.1093 71.5562 12.1093Z" stroke="#393D4E" stroke-width="5.50517"/>
<path d="M101.406 22.8446L101.406 23.0389L101.211 23.0389C101.104 23.0389 101.017 22.9517 101.017 22.8446C101.017 22.7375 101.104 22.6502 101.211 22.6502C101.318 22.6503 101.405 22.7375 101.406 22.8446Z" stroke="#393D4E" stroke-width="3.50697"/>
<path d="M111.947 22.8446L111.947 33.58L101.211 33.58C95.282 33.58 90.4758 28.7738 90.4758 22.8446C90.4759 16.9154 95.282 12.1093 101.211 12.1093C107.14 12.1093 111.947 16.9155 111.947 22.8446Z" stroke="#393D4E" stroke-width="5.50517"/>
<path d="M117.378 17.4549C117.378 16.3406 117.591 15.2952 118.016 14.3186C118.442 13.342 119.018 12.4907 119.744 11.7645C120.483 11.0258 121.341 10.4436 122.318 10.0179C123.294 9.59227 124.34 9.37943 125.455 9.37943H137.814V10.111C137.814 12.6837 135.728 14.7693 133.156 14.7693H125.455C125.079 14.7693 124.728 14.8382 124.403 14.9759C124.077 15.1136 123.789 15.3077 123.539 15.5581C123.301 15.796 123.113 16.0777 122.975 16.4032C122.837 16.7287 122.769 17.0793 122.769 17.4549C122.769 17.8305 122.837 18.1873 122.975 18.5253C123.113 18.8509 123.301 19.1388 123.539 19.3892C123.789 19.6271 124.077 19.8149 124.403 19.9526C124.728 20.0904 125.079 20.1592 125.455 20.1592H130.845C131.96 20.1592 133.005 20.3721 133.982 20.7977C134.971 21.2109 135.829 21.7868 136.556 22.5255C137.294 23.2517 137.87 24.1093 138.284 25.0984C138.709 26.075 138.922 27.1204 138.922 28.2347C138.922 29.349 138.709 30.3944 138.284 31.3709C137.87 32.3475 137.294 33.2051 136.556 33.9438C135.829 34.67 134.971 35.2459 133.982 35.6716C133.005 36.0973 131.96 36.3101 130.845 36.3101H118.88V35.5785C118.88 33.0058 120.966 30.9202 123.539 30.9202H130.845C131.221 30.9202 131.572 30.8514 131.897 30.7136C132.223 30.5759 132.505 30.3881 132.743 30.1502C132.993 29.8998 133.187 29.6119 133.325 29.2864C133.463 28.9608 133.531 28.6103 133.531 28.2347C133.531 27.8591 133.463 27.5085 133.325 27.183C133.187 26.8575 132.993 26.5758 132.743 26.3379C132.505 26.0875 132.223 25.8934 131.897 25.7557C131.572 25.618 131.221 25.5491 130.845 25.5491H125.455C124.34 25.5491 123.294 25.3363 122.318 24.9106C121.341 24.4849 120.483 23.909 119.744 23.1828C119.018 22.4441 118.442 21.5865 118.016 20.6099C117.591 19.6209 117.378 18.5692 117.378 17.4549Z" fill="#393D4E"/>
<path d="M154.895 22.8446L154.895 23.0389L155.089 23.0389C155.196 23.0389 155.283 22.9518 155.283 22.8446C155.283 22.7375 155.196 22.6502 155.089 22.6502C154.982 22.6503 154.895 22.7375 154.895 22.8446Z" stroke="#393D4E" stroke-width="3.50699"/>
<path d="M144.354 22.8446L144.354 33.5809L155.089 33.5809C161.019 33.5809 165.826 28.7738 165.826 22.8446C165.826 16.9154 161.019 12.1093 155.089 12.1093C149.16 12.1093 144.354 16.9155 144.354 22.8446Z" stroke="#393D4E" stroke-width="5.50517"/>
<path d="M141.601 28.0927H147.106V44.9057C147.106 47.5353 144.974 49.667 142.345 49.667H141.601V28.0927Z" fill="#393D4E"/>
<path d="M174.941 3.58838H175.273V3.92139C175.273 4.10481 175.125 4.25331 174.941 4.25342C174.758 4.25342 174.609 4.10487 174.608 3.92139C174.608 3.73781 174.758 3.58838 174.941 3.58838Z" stroke="#393D4E" stroke-width="3.64531"/>
<path d="M172.187 9.29102H177.674V31.5748C177.674 34.2043 175.542 36.336 172.913 36.336H172.187V9.29102Z" fill="#393D4E"/>
</svg>
