<svg width="196" height="222" viewBox="0 0 196 222" fill="none" xmlns="http://www.w3.org/2000/svg">
<path d="M65.9271 91.9698C57.5488 83.5915 57.5488 70.0076 65.9271 61.6293L106.697 20.8592L136.564 50.7256C144.942 59.104 144.942 72.6879 136.564 81.0662L95.7936 121.836L65.9271 91.9698Z" fill="white"/>
<path d="M59.682 85.7255C51.3037 77.3472 51.3037 63.7633 59.682 55.385L113.322 1.74484L142.91 31.3329C150.765 39.1875 150.765 51.9225 142.91 59.7771L88.3219 114.365L59.682 85.7255Z" fill="#0592EF"/>
<path d="M53.6009 79.644C45.2226 71.2657 45.2226 57.6818 53.6009 49.3035L102.904 6.69653e-05L136.563 33.6591C142.847 39.9429 142.847 50.1308 136.563 56.4145L83.4674 109.511L53.6009 79.644Z" fill="white"/>
<path d="M21.8867 160.662H39.3076V178.082C39.3076 187.703 31.5079 195.503 21.8867 195.503C12.2658 195.502 4.4668 187.703 4.4668 178.082C4.46706 168.461 12.2659 160.662 21.8867 160.662Z" stroke="white" stroke-width="8.9331"/>
<path d="M43.6997 200.211C43.6996 212.078 34.0795 221.699 22.2124 221.699L21.6577 221.692C10.0466 221.398 0.72422 211.893 0.724121 200.211L9.65771 200.211C9.65782 207.144 15.2787 212.765 22.2124 212.765C29.1459 212.765 34.767 207.144 34.7671 200.211L43.6997 200.211Z" fill="white"/>
<path d="M40.7007 189.256C42.6056 192.464 43.7016 196.209 43.7017 200.21C43.7017 211.835 34.4694 221.303 22.937 221.685V212.743C29.5341 212.369 34.769 206.901 34.769 200.21C34.769 198.775 34.5263 197.395 34.0825 196.111L40.7007 189.256Z" fill="white"/>
<path d="M21.8887 177.768H22.2041V178.082C22.2041 178.256 22.0626 178.397 21.8887 178.397C21.7149 178.397 21.5742 178.256 21.5742 178.082C21.5743 177.908 21.715 177.768 21.8887 177.768Z" stroke="white" stroke-width="5.69067"/>
<path d="M21.8867 160.662H39.3076V178.082C39.3076 187.703 31.5079 195.503 21.8867 195.503C12.2658 195.502 4.4668 187.703 4.4668 178.082C4.46706 168.461 12.2659 160.662 21.8867 160.662Z" stroke="white" stroke-width="8.9331"/>
<path d="M70.3218 178.082L70.3218 178.397L70.0073 178.397C69.8334 178.397 69.6919 178.256 69.6919 178.082C69.692 177.908 69.8335 177.768 70.0073 177.768C70.181 177.768 70.3216 177.908 70.3218 178.082Z" stroke="white" stroke-width="5.69067"/>
<path d="M87.4277 178.082L87.4277 195.503L70.0078 195.503C60.3866 195.503 52.5869 187.703 52.5869 178.082C52.5872 168.461 60.3868 160.662 70.0078 160.662C79.6286 160.662 87.4275 168.461 87.4277 178.082Z" stroke="white" stroke-width="8.9331"/>
<path d="M96.2407 169.336C96.2407 167.528 96.5862 165.832 97.277 164.247C97.9679 162.663 98.9026 161.281 100.081 160.103C101.28 158.904 102.672 157.959 104.257 157.269C105.842 156.578 107.538 156.232 109.347 156.232H129.402V157.42C129.402 161.594 126.018 164.979 121.843 164.979H109.347C108.737 164.979 108.168 165.09 107.64 165.314C107.112 165.537 106.644 165.852 106.238 166.258C105.852 166.644 105.547 167.102 105.324 167.63C105.1 168.158 104.988 168.727 104.988 169.336C104.988 169.946 105.1 170.525 105.324 171.073C105.547 171.602 105.852 172.069 106.238 172.475C106.644 172.861 107.112 173.166 107.64 173.389C108.168 173.613 108.737 173.725 109.347 173.725H118.094C119.903 173.725 121.6 174.07 123.184 174.761C124.79 175.431 126.182 176.366 127.36 177.564C128.559 178.743 129.494 180.134 130.164 181.739C130.855 183.324 131.201 185.02 131.201 186.828C131.201 188.637 130.855 190.333 130.164 191.918C129.494 193.502 128.559 194.894 127.36 196.093C126.182 197.271 124.79 198.205 123.184 198.896C121.6 199.587 119.903 199.932 118.094 199.932H98.6791V198.745C98.6791 194.57 102.063 191.186 106.238 191.186H118.094C118.704 191.186 119.273 191.074 119.801 190.851C120.33 190.628 120.787 190.323 121.173 189.937C121.579 189.53 121.894 189.063 122.118 188.535C122.341 188.007 122.453 187.438 122.453 186.828C122.453 186.219 122.341 185.65 122.118 185.122C121.894 184.594 121.579 184.137 121.173 183.751C120.787 183.344 120.33 183.029 119.801 182.806C119.273 182.582 118.704 182.471 118.094 182.471H109.347C107.538 182.471 105.842 182.125 104.257 181.435C102.672 180.744 101.28 179.809 100.081 178.631C98.9026 177.432 97.9679 176.041 97.277 174.456C96.5862 172.851 96.2407 171.144 96.2407 169.336Z" fill="white"/>
<path d="M157.119 178.082L157.119 178.397L157.434 178.397C157.608 178.397 157.749 178.256 157.749 178.082C157.749 177.908 157.607 177.768 157.434 177.768C157.26 177.768 157.119 177.908 157.119 178.082Z" stroke="white" stroke-width="5.6907"/>
<path d="M140.014 178.083L140.014 195.503L157.435 195.503C167.055 195.502 174.854 187.704 174.854 178.083C174.854 168.462 167.056 160.662 157.435 160.662C147.813 160.662 140.014 168.461 140.014 178.083Z" stroke="white" stroke-width="8.9331"/>
<path d="M135.547 186.598H144.48V213.88C144.48 218.147 141.021 221.606 136.754 221.606H135.547V186.598Z" fill="white"/>
<path d="M189.647 146.836H190.187V147.375C190.187 147.673 189.945 147.914 189.647 147.914C189.35 147.914 189.108 147.673 189.108 147.375C189.108 147.078 189.35 146.836 189.647 146.836Z" stroke="white" stroke-width="5.91516"/>
<path d="M185.178 156.089H194.082V192.248C194.082 196.515 190.623 199.974 186.357 199.974H185.178V156.089Z" fill="white"/>
</svg>
