<svg width="111" height="108" viewBox="0 0 111 108" fill="none" xmlns="http://www.w3.org/2000/svg">
<g filter="url(#filter0_d_1_1325)">
<rect x="22" y="22" width="66.3893" height="64" rx="32" fill="#007EFF" shape-rendering="crispEdges"/>
<path d="M41.8613 50.0001V46.6667C41.8613 43.3467 44.5413 40.6667 47.8613 40.6667H51.1947" stroke="white" stroke-width="1.5" stroke-linecap="round" stroke-linejoin="round"/>
<path d="M59.1947 40.6667H62.528C65.848 40.6667 68.528 43.3467 68.528 46.6667V50.0001" stroke="white" stroke-width="1.5" stroke-linecap="round" stroke-linejoin="round"/>
<path d="M68.5281 59.3333V61.3333C68.5281 64.6533 65.8481 67.3333 62.5281 67.3333H60.5281" stroke="white" stroke-width="1.5" stroke-linecap="round" stroke-linejoin="round"/>
<path d="M51.1947 67.3333H47.8613C44.5413 67.3333 41.8613 64.6533 41.8613 61.3333V58" stroke="white" stroke-width="1.5" stroke-linecap="round" stroke-linejoin="round"/>
<path d="M53.1947 47.3333V49.9999C53.1947 51.3333 52.5281 51.9999 51.1947 51.9999H48.5281C47.1947 51.9999 46.5281 51.3333 46.5281 49.9999V47.3333C46.5281 45.9999 47.1947 45.3333 48.5281 45.3333H51.1947C52.5281 45.3333 53.1947 45.9999 53.1947 47.3333Z" stroke="white" stroke-width="1.5" stroke-linecap="round" stroke-linejoin="round"/>
<path d="M63.8614 47.3333V49.9999C63.8614 51.3333 63.1947 51.9999 61.8614 51.9999H59.1947C57.8614 51.9999 57.1947 51.3333 57.1947 49.9999V47.3333C57.1947 45.9999 57.8614 45.3333 59.1947 45.3333H61.8614C63.1947 45.3333 63.8614 45.9999 63.8614 47.3333Z" stroke="white" stroke-width="1.5" stroke-linecap="round" stroke-linejoin="round"/>
<path d="M53.1947 58V60.6667C53.1947 62 52.5281 62.6667 51.1947 62.6667H48.5281C47.1947 62.6667 46.5281 62 46.5281 60.6667V58C46.5281 56.6667 47.1947 56 48.5281 56H51.1947C52.5281 56 53.1947 56.6667 53.1947 58Z" stroke="white" stroke-width="1.5" stroke-linecap="round" stroke-linejoin="round"/>
<path d="M63.8614 58V60.6667C63.8614 62 63.1947 62.6667 61.8614 62.6667H59.1947C57.8614 62.6667 57.1947 62 57.1947 60.6667V58C57.1947 56.6667 57.8614 56 59.1947 56H61.8614C63.1947 56 63.8614 56.6667 63.8614 58Z" stroke="white" stroke-width="1.5" stroke-linecap="round" stroke-linejoin="round"/>
</g>
<defs>
<filter id="filter0_d_1_1325" x="0" y="0" width="110.389" height="108" filterUnits="userSpaceOnUse" color-interpolation-filters="sRGB">
<feFlood flood-opacity="0" result="BackgroundImageFix"/>
<feColorMatrix in="SourceAlpha" type="matrix" values="0 0 0 0 0 0 0 0 0 0 0 0 0 0 0 0 0 0 127 0" result="hardAlpha"/>
<feOffset/>
<feGaussianBlur stdDeviation="11"/>
<feComposite in2="hardAlpha" operator="out"/>
<feColorMatrix type="matrix" values="0 0 0 0 0.351894 0 0 0 0 0.552666 0 0 0 0 1 0 0 0 0.35 0"/>
<feBlend mode="normal" in2="BackgroundImageFix" result="effect1_dropShadow_1_1325"/>
<feBlend mode="normal" in="SourceGraphic" in2="effect1_dropShadow_1_1325" result="shape"/>
</filter>
</defs>
</svg>
